<?xml version="1.0" encoding="UTF-8"?>
<svg width="752pt" height="752pt" version="1.1" viewBox="0 0 752 752" xmlns="http://www.w3.org/2000/svg">
 <path d="m569.43 406.06-16.363-0.83984c-0.58203-1.6133-1.2461-3.1953-1.9805-4.7539l10.98-12.16c2.5352-2.8086 2.4258-7.1094-0.25-9.7852l-15.816-15.812c-0.46484-0.46484-1.0234-0.75-1.5664-1.0547v-131.28c0-9.1406-7.4336-16.574-16.574-16.574h-335.45c-9.1406 0-16.574 7.4336-16.574 16.574v230.48c0 9.1406 7.4336 16.574 16.574 16.574h136.21l-2.7578 29.633c-0.11719 1.7344-2.0117 16.934-30.793 16.934-3.9258 0-7.1055 3.1836-7.1055 7.1055s3.1758 7.1055 7.1055 7.1055h130.14c3.9219 0 7.1055-3.1836 7.1055-7.1055s-3.1836-7.1055-7.1055-7.1055c-28.781 0-30.676-15.203-30.816-17.238l-2.7344-29.328h54.184l8.5391 8.5391c2.6758 2.6758 6.9766 2.7891 9.7812 0.25l12.168-10.977c1.5586 0.73438 3.1406 1.3984 4.7539 1.9805l0.83203 16.348c0.19531 3.7773 3.3086 6.7422 7.0938 6.7422h22.367c3.7852 0 6.8984-2.9648 7.0938-6.7383l0.84375-16.352c1.6094-0.58203 3.1953-1.2461 4.75-1.9766l12.156 10.973c2.8086 2.5391 7.1094 2.4297 9.7812-0.25l15.816-15.812c2.6719-2.6719 2.7852-6.9766 0.25-9.7812l-10.973-12.168c0.73047-1.5547 1.3906-3.1406 1.9766-4.75l16.359-0.84375c3.7734-0.19531 6.7383-3.3086 6.7383-7.0938v-22.363c0-3.7773-2.9609-6.8945-6.7383-7.0898zm-379.39-175.69c0-1.3086 1.0625-2.3672 2.3672-2.3672h335.45c1.3008 0 2.3672 1.0625 2.3672 2.3672v137.5l-6.1719 5.5703c-1.5469-0.73047-3.1367-1.3867-4.7461-1.9766l-0.84375-16.359c-0.19531-3.7734-3.3086-6.7383-7.0938-6.7383h-22.367c-3.7852 0-6.8984 2.9609-7.0938 6.7344l-0.84766 16.363c-1.6094 0.58203-3.1875 1.2422-4.7422 1.9688l-12.16-10.977c-2.8086-2.5352-7.1055-2.4258-9.7812 0.25l-15.816 15.812c-2.6719 2.6758-2.7852 6.9766-0.25391 9.7852l10.98 12.172c-0.73047 1.5547-1.3906 3.1367-1.9688 4.7422l-16.367 0.84375c-3.7734 0.19531-6.7383 3.3086-6.7383 7.0938v7.7422h-234.18zm143.09 293.62c6.4727-7.8047 6.8984-15.914 6.8945-15.914l2.8594-30.656h34.512l2.832 30.23c0.003906 0.15625 0.41797 8.4375 6.9531 16.34zm105.19-63.625c-0.75781 0.84375-1.2031 1.8281-1.4883 2.8516h-244.42c-1.3086 0-2.3672-1.0664-2.3672-2.3672l-0.003907-25.75h234.18v0.41016c0 3.7852 2.9609 6.8984 6.7383 7.0938l16.363 0.84766c0.58203 1.6055 1.2422 3.1914 1.9688 4.7461zm123.64-31.598-14.562 0.75c-3.0977 0.16016-5.7383 2.3164-6.5117 5.3242-0.97266 3.7617-2.4844 7.4023-4.5039 10.832-1.5781 2.6719-1.2344 6.0625 0.84766 8.3672l9.7734 10.836-6.2695 6.2695-10.836-9.7812c-2.3047-2.0898-5.7031-2.4141-8.3828-0.84375-3.3984 2.0156-7.0312 3.5273-10.809 4.4961-3.0117 0.77344-5.168 3.4141-5.3281 6.5156l-0.75 14.562h-8.8672l-0.74219-14.559c-0.15625-3.1055-2.3164-5.75-5.3281-6.5195-3.7695-0.96484-7.4062-2.4766-10.816-4.4961-2.6758-1.5898-6.0703-1.25-8.3789 0.84375l-10.844 9.7812-6.2656-6.2656 9.7734-10.84c2.0781-2.3008 2.4258-5.6914 0.84766-8.3672-2.0117-3.418-3.5234-7.0547-4.4883-10.82-0.77344-3.0117-3.4141-5.168-6.5156-5.3281l-14.57-0.75391v-8.8672l14.57-0.75c3.1016-0.16016 5.7461-2.3164 6.5156-5.3281 0.96094-3.75 2.4727-7.3945 4.4961-10.82 1.5742-2.6719 1.2305-6.0586-0.84766-8.3633l-9.7812-10.84 6.2695-6.2695 10.84 9.7812c2.3047 2.0898 5.7031 2.4297 8.3789 0.84375 3.3906-2.0039 7.0234-3.5195 10.816-4.5 3.0039-0.77734 5.1523-3.4141 5.3125-6.5117l0.75391-14.566h8.8711l0.75 14.562c0.16016 3.0977 2.3125 5.7344 5.3125 6.5117 3.793 0.98047 7.4336 2.4961 10.824 4.5 2.668 1.582 6.0625 1.2422 8.3789-0.84375l9.3398-8.4297c0.70703-0.19922 1.3789-0.47656 1.9805-0.87109l5.793 5.7891-9.7852 10.836c-2.0781 2.3008-2.4258 5.6953-0.84375 8.3789 2.0156 3.4102 3.5273 7.0508 4.4961 10.82 0.77344 3.0117 3.4141 5.1719 6.5156 5.3281l14.57 0.74219 0.007812 8.8633zm-61.762-32.73c-15.602 0-28.293 12.695-28.293 28.297 0 15.602 12.691 28.297 28.293 28.297 15.602 0 28.293-12.695 28.293-28.297-0.003907-15.602-12.695-28.297-28.293-28.297zm0 42.387c-7.7656 0-14.086-6.3164-14.086-14.09 0-7.7695 6.3164-14.09 14.086-14.09 7.7656 0 14.086 6.3164 14.086 14.09-0.003906 7.7695-6.3242 14.09-14.086 14.09zm-205.48-169.65c-2.8594-2.6914-7.3516-2.5625-10.043 0.28906l-52.312 55.41c-2.582 2.7383-2.582 7.0156 0 9.7539l52.312 55.422c1.3984 1.4805 3.2773 2.2305 5.168 2.2305 1.7461 0 3.5-0.64453 4.875-1.9375 2.8516-2.6914 2.9844-7.1875 0.28906-10.043l-47.711-50.547 47.707-50.531c2.6953-2.8555 2.5703-7.3516-0.28516-10.047zm65.277-0.73828c-3.6562-1.3984-7.7695 0.42578-9.1797 4.0859l-41.984 109.39c-1.4062 3.6602 0.42187 7.7695 4.0859 9.1797 0.83984 0.31641 1.6953 0.47266 2.543 0.47266 2.8555 0 5.5508-1.7344 6.6367-4.5625l41.984-109.39c1.4023-3.6641-0.42578-7.7734-4.0859-9.1797zm80.551 56.461-52.312-55.43c-2.6914-2.8594-7.1875-2.9844-10.039-0.29297-2.8516 2.6914-2.9844 7.1875-0.29297 10.039l47.707 50.555-47.707 50.531c-2.6914 2.8516-2.5664 7.3438 0.28906 10.043 1.375 1.293 3.125 1.9375 4.8789 1.9375 1.8867 0 3.7695-0.75 5.168-2.2305l52.309-55.402c2.5859-2.7383 2.5859-7.0117 0-9.75z"/>
</svg>
